<svg width="54" height="56" viewBox="0 0 54 56" fill="none" xmlns="http://www.w3.org/2000/svg">
<path d="M35.0447 44.0672C35.0447 42.1108 35.0447 40.1544 35.0447 38.2046C35.0447 37.5256 34.9792 36.8802 34.6754 36.2683C34.1988 35.3069 33.2517 34.7758 32.2986 34.7624C31.8935 34.7556 31.4884 34.7624 31.0833 34.7624C29.1711 34.7624 27.253 34.7624 25.3407 34.7624C23.0949 34.7624 20.8491 34.7624 18.6033 34.7624C17.3643 34.7624 16.1252 34.7825 14.8862 34.7624C14.8445 34.7624 14.8028 34.7624 14.7551 34.7556C14.9159 34.7825 15.0708 34.8027 15.2317 34.8296C15.1483 34.8161 15.0768 34.796 14.9993 34.7691L15.4282 34.9708C15.3806 34.9506 15.3329 34.9237 15.2853 34.8968C15.5355 35.1321 15.595 35.1859 15.464 35.0515C15.3448 34.9035 15.3925 34.9708 15.601 35.2531C15.5772 35.1994 15.5533 35.1456 15.5355 35.0918L15.7142 35.5759C15.6904 35.4885 15.6725 35.4078 15.6606 35.3137C15.6844 35.4952 15.7023 35.67 15.7261 35.8515C15.7023 35.3204 15.7201 34.7825 15.7201 34.2447C15.7201 33.0076 15.7201 31.7773 15.7201 30.5402C15.7201 27.7433 15.7201 24.9465 15.7201 22.1496C15.7201 21.4841 15.6963 20.8117 15.7261 20.1529C15.7023 20.3344 15.6844 20.5092 15.6606 20.6907C15.6725 20.5966 15.6904 20.5159 15.7142 20.4285C15.6546 20.5899 15.595 20.7512 15.5355 20.9126C15.5533 20.8588 15.5772 20.805 15.601 20.7512C15.3925 21.0336 15.3448 21.1008 15.464 20.9529C15.595 20.8185 15.5355 20.8722 15.2853 21.1076C15.3329 21.0807 15.3806 21.0538 15.4282 21.0336C15.2853 21.1008 15.1423 21.1681 14.9993 21.2353C15.0768 21.2084 15.1483 21.1882 15.2317 21.1748C15.0708 21.2017 14.9159 21.2218 14.7551 21.2487C15.8095 21.195 16.8758 21.242 17.9302 21.242H24.5485H30.6127H32.1675C32.4475 21.242 32.7096 21.2286 32.9896 21.1546C34.2286 20.8319 35.0328 19.5276 35.0507 18.1292C35.0745 16.1122 35.0507 14.102 35.0507 12.085C35.0507 11.9775 35.0507 11.8699 35.0626 11.7623C35.0388 11.9438 35.0209 12.1186 34.9971 12.3002C35.009 12.2195 35.0269 12.1455 35.0567 12.0716C34.9971 12.2329 34.9375 12.3943 34.878 12.5557C34.8839 12.5422 34.9435 12.4279 34.9375 12.4212C34.9554 12.4615 34.5861 12.838 34.8065 12.6229C34.9018 12.5288 34.4788 12.8246 34.6039 12.8044C34.6456 12.7977 34.7171 12.7372 34.7529 12.7237C34.6099 12.791 34.4669 12.8582 34.3239 12.9254C34.3895 12.8985 34.449 12.8851 34.5146 12.8649C34.3537 12.8918 34.1988 12.912 34.038 12.9389C34.1274 12.9254 34.2167 12.9254 34.3061 12.9389C34.1452 12.912 33.9904 12.8918 33.8295 12.8649C33.901 12.8784 33.9606 12.8985 34.0261 12.9254C33.8831 12.8582 33.7402 12.791 33.5972 12.7237C33.6985 12.7775 33.9427 12.9792 33.6389 12.7103C32.8764 12.0447 33.4483 12.5355 33.49 12.5825C33.4959 12.5893 33.5019 12.596 33.5078 12.596C33.5317 12.6229 33.5614 12.6431 33.5853 12.6699L33.907 12.9725C34.318 13.3557 34.729 13.7457 35.1401 14.1289C36.5221 15.4265 37.9041 16.724 39.2862 18.0149C40.9541 19.5814 42.628 21.1479 44.296 22.7144C45.7376 24.0658 47.1733 25.4171 48.6149 26.7618C49.2821 27.387 49.9671 27.9921 50.6105 28.6375L50.6224 28.651C50.6403 28.6711 50.6641 28.698 50.682 28.7115C50.8309 28.8459 50.5926 28.8392 50.5449 28.5098C50.5509 28.5501 50.5986 28.6308 50.6105 28.6644C50.5509 28.5031 50.4913 28.3417 50.4318 28.1803C50.4556 28.261 50.4735 28.3417 50.4854 28.4224C50.4615 28.2409 50.4437 28.0661 50.4198 27.8845C50.4258 27.9719 50.4258 28.0459 50.4198 28.1333C50.4437 27.9518 50.4615 27.777 50.4854 27.5954C50.4735 27.6828 50.4556 27.7568 50.4318 27.8375C50.4913 27.6761 50.5509 27.5148 50.6105 27.3534C50.6045 27.3736 50.5509 27.508 50.5449 27.508C50.5211 27.4946 50.8309 27.1651 50.7058 27.2727C50.676 27.2996 50.6462 27.34 50.6164 27.3668C50.6105 27.3736 50.6105 27.3736 50.6045 27.3803C50.5807 27.4005 50.5569 27.4274 50.533 27.4475C50.4318 27.5416 50.3305 27.6425 50.2292 27.7366C49.8241 28.1131 49.425 28.4896 49.0199 28.8728C47.6498 30.157 46.2738 31.4478 44.9036 32.732C43.2357 34.2985 41.5677 35.865 39.8938 37.4315C38.4462 38.7895 36.9987 40.1476 35.5451 41.5057C34.8601 42.1444 34.1572 42.763 33.49 43.4285C33.484 43.4353 33.478 43.442 33.4721 43.442C33.478 43.4353 33.9427 43.1126 33.7104 43.2268C33.6687 43.247 33.627 43.2739 33.5793 43.3008L34.0082 43.0991C33.9427 43.126 33.8772 43.1462 33.8116 43.1596C33.9725 43.1327 34.1274 43.1126 34.2882 43.0857C34.1988 43.0991 34.1095 43.0991 34.0201 43.0857C34.181 43.1126 34.3359 43.1327 34.4967 43.1596C34.4312 43.1462 34.3716 43.126 34.3061 43.0991L34.735 43.3008C34.6933 43.2806 34.6575 43.2537 34.6158 43.2403C34.3835 43.1327 34.9256 43.5496 34.7946 43.4017C34.7409 43.3411 34.6278 43.1798 34.8243 43.4622C35.0209 43.7378 34.9018 43.5563 34.8601 43.4689C34.9197 43.6302 34.9792 43.7916 35.0388 43.953C35.015 43.8723 34.9971 43.805 34.9792 43.7244C35.003 43.9059 35.0209 44.0807 35.0447 44.2622C35.0507 44.1815 35.0447 44.121 35.0447 44.0672C35.009 43.0117 34.2465 42.0032 33.2576 42.0503C32.3224 42.0974 31.4288 42.9378 31.4705 44.0672C31.5063 45.1362 31.9471 46.0977 32.7632 46.6691C33.49 47.1801 34.4073 47.2473 35.1877 46.8708C35.5451 46.7027 35.843 46.4473 36.1349 46.1716C36.528 45.8018 36.9212 45.4321 37.3144 45.0623C38.9466 43.5294 40.5788 42.0032 42.2051 40.4703C44.2067 38.5946 46.2023 36.7188 48.2038 34.843C49.6335 33.4984 51.0632 32.1605 52.4989 30.8158C52.7371 30.594 52.9933 30.3856 53.2137 30.1435C54.2562 28.967 54.2681 26.8895 53.1422 25.76C53.0588 25.6793 52.9754 25.6054 52.892 25.5247C51.6708 24.375 50.4437 23.2321 49.2225 22.0824C47.2626 20.247 45.3087 18.4116 43.3489 16.5761C41.5737 14.9088 39.7985 13.2414 38.0233 11.5808C37.4931 11.0833 36.9689 10.5925 36.4387 10.095C36.3196 9.98067 36.1945 9.86638 36.0753 9.75208C35.4915 9.20751 34.8243 8.79067 34.0321 8.87135C32.5726 9.0327 31.4884 10.2765 31.4705 11.964C31.4646 12.3876 31.4705 12.8111 31.4705 13.228V17.356C31.4705 17.6586 31.4765 17.9611 31.4646 18.2569C31.4884 18.0754 31.5063 17.9006 31.5301 17.7191C31.5182 17.8132 31.5003 17.8939 31.4765 17.9813C31.5361 17.8199 31.5956 17.6586 31.6552 17.4972C31.6373 17.551 31.6135 17.6048 31.5897 17.6586C31.7982 17.3762 31.8458 17.309 31.7267 17.4569C31.5956 17.5913 31.6552 17.5375 31.9054 17.3022C31.8577 17.3291 31.8101 17.356 31.7624 17.3762C31.9054 17.309 32.0484 17.2417 32.1913 17.1745C32.1139 17.2014 32.0424 17.2215 31.959 17.235C32.1198 17.2081 32.2747 17.1879 32.4356 17.161C31.2859 17.2215 30.1242 17.1678 28.9805 17.1678C26.6215 17.1678 24.2685 17.1678 21.9095 17.1678C19.9198 17.1678 17.9362 17.1678 15.9465 17.1678C15.5831 17.1678 15.2138 17.161 14.8504 17.1678C13.3433 17.2081 12.1936 18.5258 12.1459 20.2134C12.14 20.3478 12.1459 20.4823 12.1459 20.6168V26.9635V34.3321C12.1459 34.796 12.134 35.2599 12.1459 35.717C12.1817 37.418 13.3552 38.7156 14.8564 38.7627C14.9696 38.7694 15.0827 38.7627 15.1959 38.7627H20.1998H27.4436H32.1318C32.233 38.7627 32.3343 38.7627 32.4415 38.7694C32.2807 38.7425 32.1258 38.7223 31.965 38.6954C32.0484 38.7089 32.1198 38.729 32.1973 38.7559C32.0543 38.6887 31.9114 38.6215 31.7684 38.5542C31.816 38.5744 31.8637 38.6013 31.9114 38.6282C31.6612 38.3929 31.6016 38.3391 31.7326 38.4736C31.8518 38.6215 31.8041 38.5542 31.5956 38.2719C31.6195 38.3256 31.6433 38.3794 31.6612 38.4332C31.6016 38.2719 31.542 38.1105 31.4824 37.9491C31.5063 38.0365 31.5241 38.1172 31.5361 38.2114C31.5122 38.0298 31.4944 37.855 31.4705 37.6735C31.5003 38.3929 31.4765 39.119 31.4765 39.8451V43.247V44.0336C31.4765 45.0892 32.2986 46.0977 33.2636 46.0506C34.2286 46.0371 35.0447 45.1967 35.0447 44.0672Z" fill="#FF413D"/>
<path d="M29.0824 51.9598C28.3318 51.9598 27.5872 51.9598 26.8366 51.9598C25.0495 51.9598 23.2564 51.9598 21.4693 51.9598C19.3248 51.9598 17.1802 51.9598 15.0297 51.9598C13.2128 51.9598 11.3959 51.9598 9.57905 51.9598C8.77485 51.9598 7.97065 51.9665 7.16646 51.9598C6.91626 51.9598 6.67202 51.9396 6.42183 51.8993C6.58267 51.9262 6.73755 51.9464 6.89839 51.9733C6.44565 51.8993 6.01079 51.7648 5.58784 51.5699L6.01675 51.7716C5.70103 51.6236 5.40317 51.4421 5.11724 51.227C5.05171 51.1799 4.98618 51.1261 4.92661 51.0791C4.67046 50.8841 5.29595 51.4354 5.01001 51.153C4.88491 51.0253 4.75386 50.9043 4.63472 50.7698C4.52153 50.6421 4.42026 50.5143 4.31899 50.3799C4.06284 50.037 4.45601 50.6084 4.37856 50.474C4.33091 50.3866 4.27134 50.3059 4.22368 50.2185C4.03306 49.8958 3.87817 49.5596 3.74116 49.2033L3.91987 49.6874C3.74712 49.21 3.62798 48.7192 3.56245 48.2083C3.58628 48.3898 3.60415 48.5646 3.62798 48.7461C3.56245 48.1679 3.57437 47.583 3.57437 46.9981C3.57437 46.0568 3.57437 45.1156 3.57437 44.1811C3.57437 40.9808 3.57437 37.7739 3.57437 34.5736C3.57437 30.6607 3.57437 26.7546 3.57437 22.8417C3.57437 19.4801 3.57437 16.1252 3.57437 12.7636C3.57437 11.2105 3.56841 9.65749 3.57437 8.11116C3.57437 7.82206 3.59224 7.53296 3.62798 7.25059C3.60415 7.43211 3.58628 7.60692 3.56245 7.78844C3.62798 7.27748 3.74712 6.78669 3.91987 6.30934C3.8603 6.4707 3.80073 6.63205 3.74116 6.79341C3.87222 6.43708 4.03306 6.10092 4.22368 5.77821C4.26538 5.70425 4.31304 5.6303 4.35474 5.56307C4.52749 5.27397 4.03901 5.97991 4.28921 5.65719C4.40239 5.516 4.50962 5.36809 4.62876 5.23363C4.74194 5.10589 4.85513 4.9916 4.97427 4.8773C5.27808 4.5882 4.77173 5.03193 4.89087 4.94453C4.96831 4.89075 5.0398 4.82352 5.11724 4.76973C5.40317 4.55459 5.70103 4.37979 6.01675 4.22515C5.87378 4.29238 5.73081 4.35962 5.58784 4.42685C6.01079 4.23187 6.44565 4.09741 6.89839 4.02346C6.73755 4.05035 6.58267 4.07052 6.42183 4.09741C7.29155 3.96967 8.20298 4.0369 9.07866 4.0369H14.2672H20.6949H26.3064C27.2178 4.0369 28.1352 4.05707 29.0466 4.0369H29.0883C30.0236 4.0369 30.9171 3.1091 30.8754 2.01995C30.8337 0.924065 30.0891 0.00298808 29.0883 0.00298808C28.3616 0.00298808 27.6289 0.00298808 26.9021 0.00298808C25.1388 0.00298808 23.3815 0.00298808 21.6182 0.00298808C19.5035 0.00298808 17.3887 0.00298808 15.268 0.00298808C13.4392 0.00298808 11.6104 0.00298808 9.78159 0.00298808C8.91782 0.00298808 8.05405 -0.00373511 7.19028 0.00298808C3.91987 0.0231577 0.85796 2.6452 0.178858 6.30934C-0.011767 7.32454 0.000147087 8.29941 0.000147087 9.31461V13.3216V19.238V26.257V33.4509V40.0194V45.0484V47.704C0.000147087 48.4301 0.0597173 49.163 0.2146 49.8689C0.643506 51.859 1.78726 53.5667 3.27651 54.6961C4.42026 55.5634 5.82612 55.9937 7.19624 56.0004H8.04214H12.3789H18.5444H24.6086H28.5343H29.0943C30.0295 56.0004 30.9231 55.0726 30.8814 53.9835C30.8278 52.8809 30.0832 51.9598 29.0824 51.9598Z" fill="#FF413D"/>
</svg>
